{
  "source": "C:\\Users\\Peter\\Desktop\\stuff\\MIUN\\quantitative_research\\video_compression\\videos\\UVG\\ReadySteadyGo_1920x1080_120fps_420_8bit_YUV.y4m",
  "output": "C:\\Users\\Peter\\Desktop\\stuff\\MIUN\\quantitative_research\\video_compression\\compressed_videos\\UVG\\hevc\\1.5\\ReadySteadyGo_1920x1080_120fps_420_8bit_YUV_hevc.mp4",
  "codec": "hevc",
  "ok": "[yuv4mpegpipe @ 000001d3ae626740] Stream #0: not enough frames to estimate rate; consider increasing probesize\nInput #0, yuv4mpegpipe, from 'C:\\Users\\Peter\\Desktop\\stuff\\MIUN\\quantitative_research\\video_compression\\videos\\UVG\\ReadySteadyGo_1920x1080_120fps_420_8bit_YUV.y4m':\n  Duration: 00:00:05.00, start: 0.000000, bitrate: 2985989 kb/s\n  Stream #0:0: Video: rawvideo (I420 / 0x30323449), yuv420p(progressive), 1920x1080, 120 fps, 120 tbr, 120 tbn\n[out#0/mp4 @ 000001d3ae629ac0] Codec AVOption b:a (set bitrate (in bits/s)) has not been used for any stream. The most likely reason is either wrong type (e.g. a video option with no video streams) or that it is a private option of some decoder which was not actually used for any stream.\nStream mapping:\n  Stream #0:0 -> #0:0 (rawvideo (native) -> hevc (libx265))\nPress [q] to stop, [?] for help\n[libx265 @ 000001d3ae62cb00] Unknown option: \"aq-mode.\nx265 [info]: HEVC encoder version 4.1+190-8f11c33ac\nx265 [info]: build info [Windows][GCC 15.1.0][64 bit] 10bit\nx265 [info]: using cpu capabilities: MMX2 SSE2Fast LZCNT SSSE3 SSE4.2 AVX FMA3 BMI2 AVX2\nx265 [info]: Main 10 profile, Level-5 (Main tier)\nx265 [info]: Thread pool created using 12 threads\nx265 [info]: Slices                              : 1\nx265 [info]: frame threads / pool features       : 3 / wpp(17 rows)\nx265 [info]: Coding QT: max CU size, min CU size : 64 / 8\nx265 [info]: Residual QT: max TU size, max depth : 32 / 1 inter / 1 intra\nx265 [info]: ME / range / subpel / merge         : star / 57 / 3 / 3\nx265 [info]: Keyframe min / max / scenecut / bias  : 25 / 250 / 40 / 5.00 \nx265 [info]: Lookahead / bframes / badapt        : 25 / 4 / 2\nx265 [info]: b-pyramid / weightp / weightb       : 1 / 1 / 0\nx265 [info]: References / ref-limit  cu / depth  : 4 / on / on\nx265 [info]: AQ: mode / str / qg-size / cu-tree  : 2 / 1.0 / 32 / 1\nx265 [info]: Rate Control / qCompress            : ABR-1500 kbps / 0.60\nx265 [info]: VBV/HRD buffer / max-rate / init    : 1500 / 1500 / 0.750\nx265 [info]: tools: rect limit-modes rd=4 psy-rd=2.00 rdoq=2 psy-rdoq=1.00\nx265 [info]: tools: rskip mode=1 signhide tmvp strong-intra-smoothing lslices=4\nx265 [info]: tools: deblock sao dhdr10-info\nOutput #0, mp4, to 'C:\\Users\\Peter\\Desktop\\stuff\\MIUN\\quantitative_research\\video_compression\\compressed_videos\\UVG\\hevc\\1.5\\ReadySteadyGo_1920x1080_120fps_420_8bit_YUV_hevc.mp4':\n  Metadata:\n    encoder         : Lavf62.3.100\n  Stream #0:0: Video: hevc (hev1 / 0x31766568), yuv420p10le(tv, progressive), 1920x1080, q=2-31, 1500 kb/s, 120 fps, 15360 tbn\n    Metadata:\n      encoder         : Lavc62.11.100 libx265\n    Side data:\n      cpb: bitrate max/min/avg: 1500000/0/1500000 buffer size: 1500000 vbv_delay: N/A\nframe=    0 fps=0.0 q=0.0 size=       0KiB time=N/A bitrate=N/A speed=N/A elapsed=0:00:00.51    \nframe=    0 fps=0.0 q=0.0 size=       0KiB time=N/A bitrate=N/A speed=N/A elapsed=0:00:01.03    \nframe=    0 fps=0.0 q=0.0 size=       0KiB time=N/A bitrate=N/A speed=N/A elapsed=0:00:01.55    \nframe=    0 fps=0.0 q=0.0 size=       0KiB time=N/A bitrate=N/A speed=N/A elapsed=0:00:02.09    \nframe=    0 fps=0.0 q=0.0 size=       0KiB time=N/A bitrate=N/A speed=N/A elapsed=0:00:02.62    \nframe=    0 fps=0.0 q=0.0 size=       0KiB time=N/A bitrate=N/A speed=N/A elapsed=0:00:03.16    \nframe=    0 fps=0.0 q=0.0 size=       0KiB time=N/A bitrate=N/A speed=N/A elapsed=0:00:03.71    \nframe=    0 fps=0.0 q=0.0 size=       0KiB time=N/A bitrate=N/A speed=N/A elapsed=0:00:04.22    \nframe=    1 fps=0.2 q=50.6 size=       0KiB time=-00:00:00.00 bitrate=N/A speed=N/A elapsed=0:00:04.74    \nframe=    3 fps=0.6 q=51.0 size=       0KiB time=00:00:00.00 bitrate=  42.2kbits/s speed=0.00157x elapsed=0:00:05.29    \nframe=    4 fps=0.7 q=51.0 size=       0KiB time=00:00:00.01 bitrate=  21.1kbits/s speed=0.00286x elapsed=0:00:05.83    \nframe=    5 fps=0.8 q=51.0 size=       0KiB time=00:00:00.02 bitrate=  14.1kbits/s speed=0.00393x elapsed=0:00:06.36    \nframe=    7 fps=1.0 q=51.0 size=       0KiB time=00:00:00.04 bitrate=   8.4kbits/s speed=0.00602x elapsed=0:00:06.92    \nframe=    7 fps=0.9 q=51.0 size=       0KiB time=00:00:00.04 bitrate=   8.4kbits/s speed=0.00558x elapsed=0:00:07.46    \nframe=    8 fps=1.0 q=51.0 size=       0KiB time=00:00:00.05 bitrate=   7.0kbits/s speed=0.00627x elapsed=0:00:07.97    \nframe=   10 fps=1.2 q=47.8 size=       0KiB time=00:00:00.06 bitrate=   5.3kbits/s speed=0.00784x elapsed=0:00:08.50    \nframe=   11 fps=1.2 q=50.9 size=       0KiB time=00:00:00.07 bitrate=   4.7kbits/s speed=0.0083x elapsed=0:00:09.03    \nframe=   12 fps=1.3 q=51.0 size=       0KiB time=00:00:00.08 bitrate=   4.2kbits/s speed=0.0087x elapsed=0:00:09.57    \nframe=   13 fps=1.3 q=51.0 size=       0KiB time=00:00:00.09 bitrate=   3.8kbits/s speed=0.00907x elapsed=0:00:10.10    \nframe=   16 fps=1.5 q=51.0 size=       0KiB time=00:00:00.11 bitrate=   3.0kbits/s speed=0.011x elapsed=0:00:10.64    \nframe=   16 fps=1.4 q=51.0 size=       0KiB time=00:00:00.11 bitrate=   3.0kbits/s speed=0.0105x elapsed=0:00:11.15    \nframe=   17 fps=1.5 q=51.0 size=       0KiB time=00:00:00.12 bitrate=   2.8kbits/s speed=0.0107x elapsed=0:00:11.67    \nframe=   18 fps=1.5 q=51.0 size=       0KiB time=00:00:00.13 bitrate=   2.6kbits/s speed=0.0109x elapsed=0:00:12.20    \nframe=   20 fps=1.6 q=51.0 size=       0KiB time=00:00:00.15 bitrate=   2.3kbits/s speed=0.0118x elapsed=0:00:12.72    \nframe=   20 fps=1.5 q=51.0 size=       0KiB time=00:00:00.15 bitrate=   2.3kbits/s speed=0.0113x elapsed=0:00:13.27    \nframe=   22 fps=1.6 q=51.0 size=       0KiB time=00:00:00.16 bitrate=   2.1kbits/s speed=0.0121x elapsed=0:00:13.78    \nframe=   22 fps=1.5 q=51.0 size=       0KiB time=00:00:00.16 bitrate=   2.1kbits/s speed=0.0116x elapsed=0:00:14.32    \nframe=   24 fps=1.6 q=50.4 size=       0KiB time=00:00:00.18 bitrate=   1.9kbits/s speed=0.0123x elapsed=0:00:14.86    \nframe=   25 fps=1.6 q=51.0 size=       0KiB time=00:00:00.19 bitrate=   1.8kbits/s speed=0.0125x elapsed=0:00:15.37    \nframe=   26 fps=1.6 q=51.0 size=       0KiB time=00:00:00.20 bitrate=   1.8kbits/s speed=0.0126x elapsed=0:00:15.90    \nframe=   29 fps=1.8 q=50.2 size=       0KiB time=00:00:00.22 bitrate=   1.6kbits/s speed=0.0137x elapsed=0:00:16.41    \nframe=   29 fps=1.7 q=50.2 size=       0KiB time=00:00:00.22 bitrate=   1.6kbits/s speed=0.0133x elapsed=0:00:16.94    \nframe=   31 fps=1.8 q=51.0 size=       0KiB time=00:00:00.24 bitrate=   1.5kbits/s speed=0.0138x elapsed=0:00:17.47    \nframe=   31 fps=1.7 q=51.0 size=       0KiB time=00:00:00.24 bitrate=   1.5kbits/s speed=0.0134x elapsed=0:00:17.99    \nframe=   32 fps=1.7 q=44.9 size=       0KiB time=00:00:00.25 bitrate=   1.4kbits/s speed=0.0135x elapsed=0:00:18.53    \nframe=   33 fps=1.7 q=50.5 size=       0KiB time=00:00:00.25 bitrate=   1.4kbits/s speed=0.0136x elapsed=0:00:19.05    \nframe=   35 fps=1.8 q=50.9 size=       0KiB time=00:00:00.27 bitrate=   1.3kbits/s speed=0.014x elapsed=0:00:19.57    \nframe=   35 fps=1.7 q=50.9 size=       0KiB time=00:00:00.27 bitrate=   1.3kbits/s speed=0.0137x elapsed=0:00:20.12    \nframe=   37 fps=1.8 q=49.7 size=       0KiB time=00:00:00.29 bitrate=   1.2kbits/s speed=0.0141x elapsed=0:00:20.63    \nframe=   37 fps=1.7 q=49.7 size=       0KiB time=00:00:00.29 bitrate=   1.2kbits/s speed=0.0138x elapsed=0:00:21.16    \nframe=   38 fps=1.8 q=50.0 size=       0KiB time=00:00:00.30 bitrate=   1.2kbits/s speed=0.0138x elapsed=0:00:21.69    \nframe=   40 fps=1.8 q=43.5 size=       0KiB time=00:00:00.31 bitrate=   1.1kbits/s speed=0.0143x elapsed=0:00:22.20    \nframe=   41 fps=1.8 q=49.9 size=       0KiB time=00:00:00.32 bitrate=   1.1kbits/s speed=0.0143x elapsed=0:00:22.73    \nframe=   42 fps=1.8 q=49.8 size=       0KiB time=00:00:00.33 bitrate=   1.1kbits/s speed=0.0143x elapsed=0:00:23.25    \nframe=   42 fps=1.8 q=49.8 size=       0KiB time=00:00:00.33 bitrate=   1.1kbits/s speed=0.014x elapsed=0:00:23.76    \nframe=   42 fps=1.7 q=49.8 size=       0KiB time=00:00:00.33 bitrate=   1.1kbits/s speed=0.0137x elapsed=0:00:24.28    \nframe=   43 fps=1.7 q=49.0 size=       0KiB time=00:00:00.34 bitrate=   1.0kbits/s speed=0.0138x elapsed=0:00:24.81    \nframe=   44 fps=1.7 q=48.9 size=       0KiB time=00:00:00.35 bitrate=   1.0kbits/s speed=0.0138x elapsed=0:00:25.32    \nframe=   44 fps=1.7 q=48.9 size=       0KiB time=00:00:00.35 bitrate=   1.0kbits/s speed=0.0135x elapsed=0:00:25.85    \nframe=   45 fps=1.7 q=43.3 size=       0KiB time=00:00:00.35 bitrate=   1.0kbits/s speed=0.0136x elapsed=0:00:26.37    \nframe=   46 fps=1.7 q=48.5 size=       0KiB time=00:00:00.36 bitrate=   1.0kbits/s speed=0.0136x elapsed=0:00:26.91    \nframe=   47 fps=1.7 q=49.0 size=       0KiB time=00:00:00.37 bitrate=   0.9kbits/s speed=0.0137x elapsed=0:00:27.44    \nframe=   48 fps=1.7 q=49.0 size=       0KiB time=00:00:00.38 bitrate=   0.9kbits/s speed=0.0137x elapsed=0:00:27.96    \nframe=   49 fps=1.7 q=42.6 size=       0KiB time=00:00:00.39 bitrate=   0.9kbits/s speed=0.0137x elapsed=0:00:28.50    \nframe=   51 fps=1.8 q=49.0 size=       0KiB time=00:00:00.40 bitrate=   0.9kbits/s speed=0.0141x elapsed=0:00:29.04    \nframe=   51 fps=1.7 q=49.0 size=       0KiB time=00:00:00.40 bitrate=   0.9kbits/s speed=0.0138x elapsed=0:00:29.55    \nframe=   52 fps=1.7 q=47.9 size=       0KiB time=00:00:00.41 bitrate=   0.8kbits/s speed=0.0139x elapsed=0:00:30.07    \nframe=   53 fps=1.7 q=48.1 size=       0KiB time=00:00:00.42 bitrate=   0.8kbits/s speed=0.0139x elapsed=0:00:30.59    \nframe=   53 fps=1.7 q=48.1 size=       0KiB time=00:00:00.42 bitrate=   0.8kbits/s speed=0.0137x elapsed=0:00:31.11    \nframe=   54 fps=1.7 q=42.8 size=       0KiB time=00:00:00.43 bitrate=   0.8kbits/s speed=0.0137x elapsed=0:00:31.64    \nframe=   55 fps=1.7 q=48.1 size=       0KiB time=00:00:00.44 bitrate=   0.8kbits/s speed=0.0137x elapsed=0:00:32.15    \nframe=   55 fps=1.7 q=48.1 size=       0KiB time=00:00:00.44 bitrate=   0.8kbits/s speed=0.0135x elapsed=0:00:32.69    \nframe=   57 fps=1.7 q=48.9 size=       0KiB time=00:00:00.45 bitrate=   0.8kbits/s speed=0.0138x elapsed=0:00:33.23    \nframe=   58 fps=1.7 q=42.9 size=       0KiB time=00:00:00.46 bitrate=   0.8kbits/s speed=0.0138x elapsed=0:00:33.77    \nframe=   60 fps=1.7 q=49.0 size=       0KiB time=00:00:00.48 bitrate=   0.7kbits/s speed=0.0141x elapsed=0:00:34.31    \nframe=   60 fps=1.7 q=49.0 size=       0KiB time=00:00:00.48 bitrate=   0.7kbits/s speed=0.0139x elapsed=0:00:34.83    \nframe=   62 fps=1.8 q=47.9 size=       0KiB time=00:00:00.50 bitrate=   0.7kbits/s speed=0.0141x elapsed=0:00:35.36    \nframe=   62 fps=1.7 q=47.9 size=       0KiB time=00:00:00.50 bitrate=   0.7kbits/s speed=0.0139x elapsed=0:00:35.89    \nframe=   64 fps=1.8 q=47.4 size=       0KiB time=00:00:00.51 bitrate=   0.7kbits/s speed=0.0142x elapsed=0:00:36.43    \nframe=   64 fps=1.7 q=47.4 size=       0KiB time=00:00:00.51 bitrate=   0.7kbits/s speed=0.014x elapsed=0:00:36.95    \nframe=   66 fps=1.8 q=48.0 size=       0KiB time=00:00:00.53 bitrate=   0.7kbits/s speed=0.0142x elapsed=0:00:37.47    \nframe=   67 fps=1.8 q=42.2 size=       0KiB time=00:00:00.54 bitrate=   0.6kbits/s speed=0.0142x elapsed=0:00:38.03    \nframe=   68 fps=1.8 q=47.0 size=       0KiB time=00:00:00.55 bitrate=   0.6kbits/s speed=0.0143x elapsed=0:00:38.57    \nframe=   70 fps=1.8 q=47.9 size=       0KiB time=00:00:00.56 bitrate=   0.6kbits/s speed=0.0145x elapsed=0:00:39.10    \nframe=   73 fps=1.8 q=47.1 size=       0KiB time=00:00:00.59 bitrate=   0.6kbits/s speed=0.0149x elapsed=0:00:39.62    \nframe=   74 fps=1.8 q=48.2 size=       0KiB time=00:00:00.60 bitrate=   0.6kbits/s speed=0.0149x elapsed=0:00:40.16    \nframe=   74 fps=1.8 q=48.2 size=       0KiB time=00:00:00.60 bitrate=   0.6kbits/s speed=0.0147x elapsed=0:00:40.72    \nframe=   76 fps=1.8 q=42.7 size=       0KiB time=00:00:00.61 bitrate=   0.6kbits/s speed=0.015x elapsed=0:00:41.23    \nframe=   77 fps=1.8 q=45.4 size=       0KiB time=00:00:00.62 bitrate=   0.6kbits/s speed=0.015x elapsed=0:00:41.77    \nframe=   78 fps=1.8 q=48.9 size=       0KiB time=00:00:00.63 bitrate=   0.6kbits/s speed=0.015x elapsed=0:00:42.29    \nframe=   79 fps=1.8 q=48.1 size=       0KiB time=00:00:00.64 bitrate=   0.5kbits/s speed=0.015x elapsed=0:00:42.82    \nframe=   80 fps=1.8 q=48.8 size=       0KiB time=00:00:00.65 bitrate=   0.5kbits/s speed=0.015x elapsed=0:00:43.34    \nframe=   82 fps=1.9 q=47.3 size=       0KiB time=00:00:00.66 bitrate=   0.5kbits/s speed=0.0152x elapsed=0:00:43.85    \nframe=   83 fps=1.9 q=49.0 size=       0KiB time=00:00:00.67 bitrate=   0.5kbits/s speed=0.0152x elapsed=0:00:44.39    \nframe=   84 fps=1.9 q=49.0 size=       0KiB time=00:00:00.68 bitrate=   0.5kbits/s speed=0.0152x elapsed=0:00:44.93    \nframe=   85 fps=1.9 q=44.4 size=       0KiB time=00:00:00.69 bitrate=   0.5kbits/s speed=0.0152x elapsed=0:00:45.46    \nframe=   86 fps=1.9 q=47.4 size=       0KiB time=00:00:00.70 bitrate=   0.5kbits/s speed=0.0152x elapsed=0:00:45.97    \nframe=   86 fps=1.8 q=47.4 size=       0KiB time=00:00:00.70 bitrate=   0.5kbits/s speed=0.0151x elapsed=0:00:46.49    \nframe=   88 fps=1.9 q=48.2 size=       0KiB time=00:00:00.71 bitrate=   0.5kbits/s speed=0.0152x elapsed=0:00:47.02    \nframe=   88 fps=1.9 q=48.2 size=       0KiB time=00:00:00.71 bitrate=   0.5kbits/s speed=0.0151x elapsed=0:00:47.55    \nframe=   90 fps=1.9 q=47.2 size=       0KiB time=00:00:00.73 bitrate=   0.5kbits/s speed=0.0152x elapsed=0:00:48.09    \nframe=   90 fps=1.9 q=47.2 size=       0KiB time=00:00:00.73 bitrate=   0.5kbits/s speed=0.0151x elapsed=0:00:48.60    \nframe=   91 fps=1.9 q=48.1 size=       0KiB time=00:00:00.74 bitrate=   0.5kbits/s speed=0.0151x elapsed=0:00:49.12    \nframe=   92 fps=1.9 q=48.0 size=       0KiB time=00:00:00.75 bitrate=   0.5kbits/s speed=0.0151x elapsed=0:00:49.63    \nframe=   93 fps=1.9 q=42.9 size=       0KiB time=00:00:00.75 bitrate=   0.5kbits/s speed=0.0151x elapsed=0:00:50.15    \nframe=   94 fps=1.9 q=45.1 size=       0KiB time=00:00:00.76 bitrate=   0.5kbits/s speed=0.0151x elapsed=0:00:50.66    \nframe=   95 fps=1.9 q=48.8 size=       0KiB time=00:00:00.77 bitrate=   0.5kbits/s speed=0.0151x elapsed=0:00:51.18    \nframe=   95 fps=1.8 q=48.8 size=       0KiB time=00:00:00.77 bitrate=   0.5kbits/s speed=0.015x elapsed=0:00:51.70    \nframe=   97 fps=1.9 q=49.0 size=       0KiB time=00:00:00.79 bitrate=   0.4kbits/s speed=0.0152x elapsed=0:00:52.22    \nframe=   97 fps=1.8 q=49.0 size=       0KiB time=00:00:00.79 bitrate=   0.4kbits/s speed=0.015x elapsed=0:00:52.73    \nframe=   97 fps=1.8 q=49.0 size=       0KiB time=00:00:00.79 bitrate=   0.4kbits/s speed=0.0149x elapsed=0:00:53.24    \nframe=   98 fps=1.8 q=44.1 size=       0KiB time=00:00:00.80 bitrate=   0.4kbits/s speed=0.0149x elapsed=0:00:53.77    \nframe=   99 fps=1.8 q=47.2 size=       0KiB time=00:00:00.80 bitrate=   0.4kbits/s speed=0.0149x elapsed=0:00:54.29    \nframe=  100 fps=1.8 q=49.0 size=       0KiB time=00:00:00.81 bitrate=   0.4kbits/s speed=0.0149x elapsed=0:00:54.81    \nframe=  100 fps=1.8 q=49.0 size=       0KiB time=00:00:00.81 bitrate=   0.4kbits/s speed=0.0148x elapsed=0:00:55.32    \nframe=  101 fps=1.8 q=48.9 size=       0KiB time=00:00:00.82 bitrate=   0.4kbits/s speed=0.0148x elapsed=0:00:55.85    \nframe=  102 fps=1.8 q=43.5 size=       0KiB time=00:00:00.83 bitrate=   0.4kbits/s speed=0.0148x elapsed=0:00:56.37    \nframe=  103 fps=1.8 q=47.8 size=       0KiB time=00:00:00.84 bitrate=   0.4kbits/s speed=0.0148x elapsed=0:00:56.88    \nframe=  104 fps=1.8 q=48.8 size=       0KiB time=00:00:00.85 bitrate=   0.4kbits/s speed=0.0148x elapsed=0:00:57.41    \nframe=  104 fps=1.8 q=48.8 size=       0KiB time=00:00:00.85 bitrate=   0.4kbits/s speed=0.0147x elapsed=0:00:57.93    \nframe=  105 fps=1.8 q=49.8 size=       0KiB time=00:00:00.85 bitrate=   0.4kbits/s speed=0.0147x elapsed=0:00:58.45    \nframe=  106 fps=1.8 q=49.9 size=       0KiB time=00:00:00.86 bitrate=   0.4kbits/s speed=0.0147x elapsed=0:00:58.97    \nframe=  108 fps=1.8 q=48.1 size=       0KiB time=00:00:00.88 bitrate=   0.4kbits/s speed=0.0148x elapsed=0:00:59.49    \nframe=  109 fps=1.8 q=50.0 size=       0KiB time=00:00:00.89 bitrate=   0.4kbits/s speed=0.0149x elapsed=0:01:00.01    \nframe=  109 fps=1.8 q=50.0 size=       0KiB time=00:00:00.89 bitrate=   0.4kbits/s speed=0.0147x elapsed=0:01:00.53    \nframe=  110 fps=1.8 q=50.1 size=       0KiB time=00:00:00.90 bitrate=   0.4kbits/s speed=0.0147x elapsed=0:01:01.05    \nframe=  111 fps=1.8 q=44.6 size=       0KiB time=00:00:00.90 bitrate=   0.4kbits/s speed=0.0148x elapsed=0:01:01.56    \nframe=  112 fps=1.8 q=48.4 size=       0KiB time=00:00:00.91 bitrate=   0.4kbits/s speed=0.0148x elapsed=0:01:02.07    \nframe=  112 fps=1.8 q=48.4 size=       0KiB time=00:00:00.91 bitrate=   0.4kbits/s speed=0.0146x elapsed=0:01:02.61    \nframe=  114 fps=1.8 q=49.9 size=       0KiB time=00:00:00.93 bitrate=   0.4kbits/s speed=0.0148x elapsed=0:01:03.12    \nframe=  114 fps=1.8 q=49.9 size=       0KiB time=00:00:00.93 bitrate=   0.4kbits/s speed=0.0147x elapsed=0:01:03.63    \nframe=  116 fps=1.8 q=48.4 size=       0KiB time=00:00:00.95 bitrate=   0.4kbits/s speed=0.0148x elapsed=0:01:04.16    \nframe=  116 fps=1.8 q=48.4 size=       0KiB time=00:00:00.95 bitrate=   0.4kbits/s speed=0.0147x elapsed=0:01:04.68    \nframe=  117 fps=1.8 q=50.1 size=       0KiB time=00:00:00.95 bitrate=   0.4kbits/s speed=0.0147x elapsed=0:01:05.20    \nframe=  118 fps=1.8 q=50.0 size=       0KiB time=00:00:00.96 bitrate=   0.4kbits/s speed=0.0147x elapsed=0:01:05.71    \nframe=  119 fps=1.8 q=44.6 size=       0KiB time=00:00:00.97 bitrate=   0.4kbits/s speed=0.0147x elapsed=0:01:06.23    \nframe=  120 fps=1.8 q=48.9 size=       0KiB time=00:00:00.98 bitrate=   0.4kbits/s speed=0.0147x elapsed=0:01:06.76    \nframe=  121 fps=1.8 q=50.2 size=       0KiB time=00:00:00.99 bitrate=   0.4kbits/s speed=0.0147x elapsed=0:01:07.28    \nframe=  122 fps=1.8 q=44.5 size=       0KiB time=00:00:01.00 bitrate=   0.4kbits/s speed=0.0147x elapsed=0:01:07.80    \nframe=  123 fps=1.8 q=48.4 size=       0KiB time=00:00:01.00 bitrate=   0.3kbits/s speed=0.0148x elapsed=0:01:08.32    \nframe=  123 fps=1.8 q=48.4 size=       0KiB time=00:00:01.00 bitrate=   0.3kbits/s speed=0.0146x elapsed=0:01:08.85    \nframe=  124 fps=1.8 q=50.0 size=       0KiB time=00:00:01.01 bitrate=   0.3kbits/s speed=0.0147x elapsed=0:01:09.37    \nframe=  125 fps=1.8 q=50.0 size=       0KiB time=00:00:01.02 bitrate=   0.3kbits/s speed=0.0147x elapsed=0:01:09.89    \nframe=  125 fps=1.8 q=50.0 size=       0KiB time=00:00:01.02 bitrate=   0.3kbits/s speed=0.0146x elapsed=0:01:10.40    \nframe=  127 fps=1.8 q=49.0 size=       0KiB time=00:00:01.04 bitrate=   0.3kbits/s speed=0.0147x elapsed=0:01:10.92    \nframe=  128 fps=1.8 q=50.2 size=       0KiB time=00:00:01.05 bitrate=   0.3kbits/s speed=0.0147x elapsed=0:01:11.44    \nframe=  128 fps=1.8 q=50.2 size=       0KiB time=00:00:01.05 bitrate=   0.3kbits/s speed=0.0146x elapsed=0:01:11.97    \nframe=  129 fps=1.8 q=50.2 size=       0KiB time=00:00:01.05 bitrate=   0.3kbits/s speed=0.0146x elapsed=0:01:12.49    \nframe=  130 fps=1.8 q=50.9 size=       0KiB time=00:00:01.06 bitrate=   0.3kbits/s speed=0.0146x elapsed=0:01:13.02    \nframe=  131 fps=1.8 q=44.8 size=       0KiB time=00:00:01.07 bitrate=   0.3kbits/s speed=0.0146x elapsed=0:01:13.52    \nframe=  132 fps=1.8 q=49.2 size=       0KiB time=00:00:01.08 bitrate=   0.3kbits/s speed=0.0146x elapsed=0:01:14.04    \nframe=  132 fps=1.8 q=49.2 size=       0KiB time=00:00:01.08 bitrate=   0.3kbits/s speed=0.0145x elapsed=0:01:14.56    \nframe=  133 fps=1.8 q=50.9 size=       0KiB time=00:00:01.09 bitrate=   0.3kbits/s speed=0.0145x elapsed=0:01:15.09    \nframe=  135 fps=1.8 q=44.9 size=       0KiB time=00:00:01.10 bitrate=   0.3kbits/s speed=0.0147x elapsed=0:01:15.61    \nframe=  136 fps=1.8 q=49.1 size=       0KiB time=00:00:01.11 bitrate=   0.3kbits/s speed=0.0147x elapsed=0:01:16.14    \nframe=  136 fps=1.8 q=49.1 size=       0KiB time=00:00:01.11 bitrate=   0.3kbits/s speed=0.0146x elapsed=0:01:16.65    \nframe=  137 fps=1.8 q=50.9 size=       0KiB time=00:00:01.12 bitrate=   0.3kbits/s speed=0.0146x elapsed=0:01:17.18    \nframe=  138 fps=1.8 q=50.9 size=       0KiB time=00:00:01.13 bitrate=   0.3kbits/s speed=0.0146x elapsed=0:01:17.71    \nframe=  139 fps=1.8 q=46.0 size=       0KiB time=00:00:01.14 bitrate=   0.3kbits/s speed=0.0146x elapsed=0:01:18.23    \nframe=  139 fps=1.8 q=46.0 size=       0KiB time=00:00:01.14 bitrate=   0.3kbits/s speed=0.0145x elapsed=0:01:18.74    \nframe=  140 fps=1.8 q=49.2 size=       0KiB time=00:00:01.15 bitrate=   0.3kbits/s speed=0.0145x elapsed=0:01:19.26    \nframe=  141 fps=1.8 q=50.7 size=       0KiB time=00:00:01.15 bitrate=   0.3kbits/s speed=0.0145x elapsed=0:01:19.78    \nframe=  142 fps=1.8 q=45.2 size=       0KiB time=00:00:01.16 bitrate=   0.3kbits/s speed=0.0145x elapsed=0:01:20.29    \nframe=  143 fps=1.8 q=49.1 size=       0KiB time=00:00:01.17 bitrate=   0.3kbits/s speed=0.0145x elapsed=0:01:20.82    \nframe=  143 fps=1.8 q=49.1 size=       0KiB time=00:00:01.17 bitrate=   0.3kbits/s speed=0.0144x elapsed=0:01:21.33    \nframe=  144 fps=1.8 q=50.9 size=       0KiB time=00:00:01.18 bitrate=   0.3kbits/s speed=0.0145x elapsed=0:01:21.84    \nframe=  145 fps=1.8 q=45.6 size=       0KiB time=00:00:01.19 bitrate=   0.3kbits/s speed=0.0145x elapsed=0:01:22.35    \nframe=  145 fps=1.7 q=45.6 size=       0KiB time=00:00:01.19 bitrate=   0.3kbits/s speed=0.0144x elapsed=0:01:22.89    \nframe=  146 fps=1.8 q=49.2 size=       0KiB time=00:00:01.20 bitrate=   0.3kbits/s speed=0.0144x elapsed=0:01:23.41    \nframe=  146 fps=1.7 q=49.2 size=       0KiB time=00:00:01.20 bitrate=   0.3kbits/s speed=0.0143x elapsed=0:01:23.91    \nframe=  147 fps=1.7 q=50.8 size=       0KiB time=00:00:01.20 bitrate=   0.3kbits/s speed=0.0143x elapsed=0:01:24.43    \nframe=  148 fps=1.7 q=51.0 size=       0KiB time=00:00:01.21 bitrate=   0.3kbits/s speed=0.0143x elapsed=0:01:24.95    \nframe=  150 fps=1.8 q=49.1 size=       0KiB time=00:00:01.23 bitrate=   0.3kbits/s speed=0.0144x elapsed=0:01:25.49    \nframe=  150 fps=1.7 q=49.1 size=       0KiB time=00:00:01.23 bitrate=   0.3kbits/s speed=0.0143x elapsed=0:01:26.01    \nframe=  151 fps=1.7 q=50.9 size=       0KiB time=00:00:01.24 bitrate=   0.3kbits/s speed=0.0144x elapsed=0:01:26.52    \nframe=  151 fps=1.7 q=50.9 size=       0KiB time=00:00:01.24 bitrate=   0.3kbits/s speed=0.0143x elapsed=0:01:27.05    \nframe=  152 fps=1.7 q=50.9 size=       0KiB time=00:00:01.25 bitrate=   0.3kbits/s speed=0.0143x elapsed=0:01:27.57    \nframe=  153 fps=1.7 q=45.1 size=       0KiB time=00:00:01.25 bitrate=   0.3kbits/s speed=0.0143x elapsed=0:01:28.10    \nframe=  154 fps=1.7 q=49.1 size=       0KiB time=00:00:01.26 bitrate=   0.3kbits/s speed=0.0143x elapsed=0:01:28.62    \nframe=  154 fps=1.7 q=49.1 size=       0KiB time=00:00:01.26 bitrate=   0.3kbits/s speed=0.0142x elapsed=0:01:29.13    \nframe=  155 fps=1.7 q=50.9 size=       0KiB time=00:00:01.27 bitrate=   0.3kbits/s speed=0.0142x elapsed=0:01:29.65    \nframe=  156 fps=1.7 q=50.8 size=       0KiB time=00:00:01.28 bitrate=   0.3kbits/s speed=0.0142x elapsed=0:01:30.17    \nframe=  157 fps=1.7 q=45.5 size=       0KiB time=00:00:01.29 bitrate=   0.3kbits/s speed=0.0142x elapsed=0:01:30.69    \nframe=  157 fps=1.7 q=45.5 size=       0KiB time=00:00:01.29 bitrate=   0.3kbits/s speed=0.0142x elapsed=0:01:31.19    \nframe=  158 fps=1.7 q=49.0 size=       0KiB time=00:00:01.30 bitrate=   0.3kbits/s speed=0.0142x elapsed=0:01:31.71    \nframe=  158 fps=1.7 q=49.0 size=       0KiB time=00:00:01.30 bitrate=   0.3kbits/s speed=0.0141x elapsed=0:01:32.24    \nframe=  159 fps=1.7 q=50.7 size=       0KiB time=00:00:01.30 bitrate=   0.3kbits/s speed=0.0141x elapsed=0:01:32.75    \nframe=  160 fps=1.7 q=50.9 size=       0KiB time=00:00:01.31 bitrate=   0.3kbits/s speed=0.0141x elapsed=0:01:33.26    \nframe=  161 fps=1.7 q=44.9 size=       0KiB time=00:00:01.32 bitrate=   0.3kbits/s speed=0.0141x elapsed=0:01:33.78    \nframe=  163 fps=1.7 q=50.9 size=       0KiB time=00:00:01.34 bitrate=   0.3kbits/s speed=0.0142x elapsed=0:01:34.30    \nframe=  164 fps=1.7 q=50.9 size=       0KiB time=00:00:01.35 bitrate=   0.3kbits/s speed=0.0142x elapsed=0:01:34.80    \nframe=  164 fps=1.7 q=50.9 size=       0KiB time=00:00:01.35 bitrate=   0.3kbits/s speed=0.0142x elapsed=0:01:35.32    \nframe=  165 fps=1.7 q=45.5 size=       0KiB time=00:00:01.35 bitrate=   0.3kbits/s speed=0.0142x elapsed=0:01:35.84    \nframe=  165 fps=1.7 q=45.5 size=       0KiB time=00:00:01.35 bitrate=   0.3kbits/s speed=0.0141x elapsed=0:01:36.36    \nframe=  166 fps=1.7 q=49.1 size=       0KiB time=00:00:01.36 bitrate=   0.3kbits/s speed=0.0141x elapsed=0:01:36.88    \nframe=  166 fps=1.7 q=49.1 size=       0KiB time=00:00:01.36 bitrate=   0.3kbits/s speed=0.014x elapsed=0:01:37.40    \nframe=  167 fps=1.7 q=50.9 size=       0KiB time=00:00:01.37 bitrate=   0.3kbits/s speed=0.014x elapsed=0:01:37.93    \nframe=  167 fps=1.7 q=50.9 size=       0KiB time=00:00:01.37 bitrate=   0.3kbits/s speed=0.014x elapsed=0:01:38.46    \nframe=  168 fps=1.7 q=45.7 size=       0KiB time=00:00:01.38 bitrate=   0.3kbits/s speed=0.014x elapsed=0:01:38.98    \nframe=  169 fps=1.7 q=49.4 size=       0KiB time=00:00:01.39 bitrate=   0.3kbits/s speed=0.014x elapsed=0:01:39.51    \nframe=  169 fps=1.7 q=49.4 size=       0KiB time=00:00:01.39 bitrate=   0.3kbits/s speed=0.0139x elapsed=0:01:40.03    \nframe=  170 fps=1.7 q=50.9 size=       0KiB time=00:00:01.40 bitrate=   0.3kbits/s speed=0.0139x elapsed=0:01:40.54    \nframe=  171 fps=1.7 q=45.7 size=       0KiB time=00:00:01.40 bitrate=   0.2kbits/s speed=0.0139x elapsed=0:01:41.07    \nframe=  171 fps=1.7 q=45.7 size=       0KiB time=00:00:01.40 bitrate=   0.2kbits/s speed=0.0139x elapsed=0:01:41.60    \nframe=  172 fps=1.7 q=49.2 size=     256KiB time=00:00:01.41 bitrate=1480.6kbits/s speed=0.0139x elapsed=0:01:42.12    \nframe=  172 fps=1.7 q=49.2 size=     256KiB time=00:00:01.41 bitrate=1480.6kbits/s speed=0.0138x elapsed=0:01:42.64    \nframe=  173 fps=1.7 q=50.9 size=     256KiB time=00:00:01.42 bitrate=1471.9kbits/s speed=0.0138x elapsed=0:01:43.17    \nframe=  174 fps=1.7 q=50.9 size=     256KiB time=00:00:01.43 bitrate=1463.4kbits/s speed=0.0138x elapsed=0:01:43.68    \nframe=  176 fps=1.7 q=49.2 size=     256KiB time=00:00:01.45 bitrate=1446.6kbits/s speed=0.0139x elapsed=0:01:44.20    \nframe=  177 fps=1.7 q=50.9 size=     256KiB time=00:00:01.45 bitrate=1438.3kbits/s speed=0.0139x elapsed=0:01:44.72    \nframe=  178 fps=1.7 q=50.9 size=     256KiB time=00:00:01.46 bitrate=1430.1kbits/s speed=0.0139x elapsed=0:01:45.23    \nframe=  180 fps=1.7 q=49.2 size=     256KiB time=00:00:01.48 bitrate=1414.0kbits/s speed=0.014x elapsed=0:01:45.74    \nframe=  181 fps=1.7 q=50.8 size=     256KiB time=00:00:01.49 bitrate=1406.1kbits/s speed=0.014x elapsed=0:01:46.27    \nframe=  182 fps=1.7 q=50.9 size=     256KiB time=00:00:01.50 bitrate=1398.3kbits/s speed=0.014x elapsed=0:01:46.78    \nframe=  184 fps=1.7 q=49.2 size=     256KiB time=00:00:01.51 bitrate=1383.0kbits/s speed=0.0141x elapsed=0:01:47.30    \nframe=  185 fps=1.7 q=50.8 size=     256KiB time=00:00:01.52 bitrate=1375.4kbits/s speed=0.0141x elapsed=0:01:47.82    \nframe=  186 fps=1.7 q=50.7 size=     256KiB time=00:00:01.53 bitrate=1367.9kbits/s speed=0.0142x elapsed=0:01:48.33    \nframe=  188 fps=1.7 q=49.2 size=     256KiB time=00:00:01.55 bitrate=1353.2kbits/s speed=0.0142x elapsed=0:01:48.84    \nframe=  189 fps=1.7 q=51.0 size=     256KiB time=00:00:01.55 bitrate=1346.0kbits/s speed=0.0142x elapsed=0:01:49.36    \nframe=  190 fps=1.7 q=50.9 size=     256KiB time=00:00:01.56 bitrate=1338.8kbits/s speed=0.0143x elapsed=0:01:49.88    \nframe=  192 fps=1.7 q=49.2 size=     256KiB time=00:00:01.58 bitrate=1324.7kbits/s speed=0.0143x elapsed=0:01:50.39    \nframe=  193 fps=1.7 q=50.9 size=     256KiB time=00:00:01.59 bitrate=1317.8kbits/s speed=0.0144x elapsed=0:01:50.90    \nframe=  194 fps=1.7 q=50.9 size=     256KiB time=00:00:01.60 bitrate=1310.9kbits/s speed=0.0144x elapsed=0:01:51.41    \nframe=  196 fps=1.8 q=49.3 size=     256KiB time=00:00:01.61 bitrate=1297.4kbits/s speed=0.0144x elapsed=0:01:51.93    \nframe=  197 fps=1.8 q=50.9 size=     256KiB time=00:00:01.62 bitrate=1290.8kbits/s speed=0.0145x elapsed=0:01:52.45    \nframe=  199 fps=1.8 q=45.2 size=     256KiB time=00:00:01.64 bitrate=1277.7kbits/s speed=0.0145x elapsed=0:01:52.96    \nframe=  200 fps=1.8 q=49.2 size=     256KiB time=00:00:01.65 bitrate=1271.2kbits/s speed=0.0145x elapsed=0:01:53.48    \nframe=  201 fps=1.8 q=51.0 size=     256KiB time=00:00:01.65 bitrate=1264.8kbits/s speed=0.0145x elapsed=0:01:54.00    \nframe=  203 fps=1.8 q=46.8 size=     256KiB time=00:00:01.67 bitrate=1252.2kbits/s speed=0.0146x elapsed=0:01:54.51    \nframe=  204 fps=1.8 q=49.6 size=     256KiB time=00:00:01.68 bitrate=1246.0kbits/s speed=0.0146x elapsed=0:01:55.03    \nframe=  205 fps=1.8 q=50.9 size=     256KiB time=00:00:01.69 bitrate=1239.9kbits/s speed=0.0146x elapsed=0:01:55.56    \nframe=  206 fps=1.8 q=45.5 size=     256KiB time=00:00:01.70 bitrate=1233.8kbits/s speed=0.0146x elapsed=0:01:56.08    \nframe=  207 fps=1.8 q=48.9 size=     256KiB time=00:00:01.70 bitrate=1227.8kbits/s speed=0.0147x elapsed=0:01:56.60    \nframe=  209 fps=1.8 q=51.0 size=     256KiB time=00:00:01.72 bitrate=1215.9kbits/s speed=0.0147x elapsed=0:01:57.13    \nframe=  210 fps=1.8 q=47.1 size=     256KiB time=00:00:01.73 bitrate=1210.1kbits/s speed=0.0147x elapsed=0:01:57.63    \nframe=  211 fps=1.8 q=50.0 size=     256KiB time=00:00:01.74 bitrate=1204.3kbits/s speed=0.0147x elapsed=0:01:58.15    \nframe=  212 fps=1.8 q=51.0 size=     256KiB time=00:00:01.75 bitrate=1198.6kbits/s speed=0.0147x elapsed=0:01:58.67    \nframe=  214 fps=1.8 q=50.1 size=     256KiB time=00:00:01.76 bitrate=1187.3kbits/s speed=0.0148x elapsed=0:01:59.18    \nframe=  215 fps=1.8 q=50.9 size=     256KiB time=00:00:01.77 bitrate=1181.7kbits/s speed=0.0148x elapsed=0:01:59.69    \nframe=  216 fps=1.8 q=51.0 size=     256KiB time=00:00:01.78 bitrate=1176.2kbits/s speed=0.0148x elapsed=0:02:00.22    \nframe=  218 fps=1.8 q=50.1 size=     256KiB time=00:00:01.80 bitrate=1165.3kbits/s speed=0.0149x elapsed=0:02:00.74    \nframe=  219 fps=1.8 q=51.0 size=     256KiB time=00:00:01.80 bitrate=1159.9kbits/s speed=0.0149x elapsed=0:02:01.24    \nframe=  221 fps=1.8 q=47.1 size=     256KiB time=00:00:01.82 bitrate=1149.3kbits/s speed=0.015x elapsed=0:02:01.77    \nframe=  222 fps=1.8 q=50.2 size=     256KiB time=00:00:01.83 bitrate=1144.1kbits/s speed=0.015x elapsed=0:02:02.28    \nframe=  223 fps=1.8 q=51.0 size=     256KiB time=00:00:01.84 bitrate=1138.9kbits/s speed=0.015x elapsed=0:02:02.79    \nframe=  225 fps=1.8 q=46.9 size=     256KiB time=00:00:01.85 bitrate=1128.7kbits/s speed=0.0151x elapsed=0:02:03.32    \nframe=  226 fps=1.8 q=50.1 size=     256KiB time=00:00:01.86 bitrate=1123.7kbits/s speed=0.0151x elapsed=0:02:03.85    \nframe=  227 fps=1.8 q=50.9 size=     256KiB time=00:00:01.87 bitrate=1118.7kbits/s speed=0.0151x elapsed=0:02:04.35    \nframe=  228 fps=1.8 q=51.0 size=     256KiB time=00:00:01.88 bitrate=1113.7kbits/s speed=0.0151x elapsed=0:02:04.88    \nframe=  230 fps=1.8 q=50.2 size=     256KiB time=00:00:01.90 bitrate=1103.9kbits/s speed=0.0152x elapsed=0:02:05.39    \nframe=  231 fps=1.8 q=51.0 size=     256KiB time=00:00:01.90 bitrate=1099.1kbits/s speed=0.0152x elapsed=0:02:05.91    \nframe=  232 fps=1.8 q=51.0 size=     256KiB time=00:00:01.91 bitrate=1094.3kbits/s speed=0.0152x elapsed=0:02:06.41    \nframe=  234 fps=1.8 q=50.2 size=     256KiB time=00:00:01.93 bitrate=1084.9kbits/s speed=0.0152x elapsed=0:02:06.94    \nframe=  235 fps=1.8 q=51.0 size=     256KiB time=00:00:01.94 bitrate=1080.3kbits/s speed=0.0152x elapsed=0:02:07.45    \nframe=  237 fps=1.9 q=47.5 size=     256KiB time=00:00:01.95 bitrate=1071.1kbits/s speed=0.0153x elapsed=0:02:07.96    \nframe=  238 fps=1.9 q=50.1 size=     256KiB time=00:00:01.96 bitrate=1066.5kbits/s speed=0.0153x elapsed=0:02:08.48    \nframe=  240 fps=1.9 q=51.0 size=     256KiB time=00:00:01.98 bitrate=1057.6kbits/s speed=0.0154x elapsed=0:02:09.00    \nframe=  242 fps=1.9 q=50.1 size=     256KiB time=00:00:02.00 bitrate=1048.8kbits/s speed=0.0154x elapsed=0:02:09.51    \nframe=  244 fps=1.9 q=51.0 size=     256KiB time=00:00:02.01 bitrate=1040.1kbits/s speed=0.0155x elapsed=0:02:10.04    \nframe=  245 fps=1.9 q=46.0 size=     256KiB time=00:00:02.02 bitrate=1035.8kbits/s speed=0.0155x elapsed=0:02:10.57    \nframe=  246 fps=1.9 q=50.0 size=     256KiB time=00:00:02.03 bitrate=1031.6kbits/s speed=0.0155x elapsed=0:02:11.08    \nframe=  248 fps=1.9 q=51.0 size=     256KiB time=00:00:02.05 bitrate=1023.2kbits/s speed=0.0156x elapsed=0:02:11.59    \nframe=  249 fps=1.9 q=43.9 size=     256KiB time=00:00:02.05 bitrate=1019.0kbits/s speed=0.0156x elapsed=0:02:12.11    \nframe=  251 fps=1.9 q=51.0 size=     256KiB time=00:00:02.07 bitrate=1010.8kbits/s speed=0.0156x elapsed=0:02:12.63    \nframe=  254 fps=1.9 q=51.0 size=     256KiB time=00:00:02.10 bitrate= 998.8kbits/s speed=0.0158x elapsed=0:02:13.14    \nframe=  254 fps=1.9 q=51.0 size=     256KiB time=00:00:02.10 bitrate= 998.8kbits/s speed=0.0157x elapsed=0:02:13.66    \nframe=  255 fps=1.9 q=47.2 size=     256KiB time=00:00:02.10 bitrate= 994.9kbits/s speed=0.0157x elapsed=0:02:14.18    \nframe=  258 fps=1.9 q=51.0 size=     256KiB time=00:00:02.13 bitrate= 983.2kbits/s speed=0.0158x elapsed=0:02:14.70    \nframe=  258 fps=1.9 q=51.0 size=     256KiB time=00:00:02.13 bitrate= 983.2kbits/s speed=0.0158x elapsed=0:02:15.22    \nframe=  259 fps=1.9 q=45.0 size=     256KiB time=00:00:02.14 bitrate= 979.4kbits/s speed=0.0158x elapsed=0:02:15.73    \nframe=  260 fps=1.9 q=50.0 size=     256KiB time=00:00:02.15 bitrate= 975.6kbits/s speed=0.0158x elapsed=0:02:16.24    \nframe=  263 fps=1.9 q=51.0 size=     256KiB time=00:00:02.17 bitrate= 964.4kbits/s speed=0.0159x elapsed=0:02:16.77    \nframe=  264 fps=1.9 q=45.4 size=     256KiB time=00:00:02.18 bitrate= 960.7kbits/s speed=0.0159x elapsed=0:02:17.27    \nframe=  265 fps=1.9 q=50.6 size=     256KiB time=00:00:02.19 bitrate= 957.0kbits/s speed=0.0159x elapsed=0:02:17.79    \nframe=  267 fps=1.9 q=51.0 size=     256KiB time=00:00:02.20 bitrate= 949.8kbits/s speed=0.016x elapsed=0:02:18.31    \nframe=  268 fps=1.9 q=47.2 size=     256KiB time=00:00:02.21 bitrate= 946.2kbits/s speed=0.016x elapsed=0:02:18.82    \nframe=  270 fps=1.9 q=51.0 size=     256KiB time=00:00:02.23 bitrate= 939.2kbits/s speed=0.016x elapsed=0:02:19.34    \nframe=  272 fps=1.9 q=50.8 size=     256KiB time=00:00:02.25 bitrate= 932.2kbits/s speed=0.0161x elapsed=0:02:19.86    \nframe=  274 fps=2.0 q=44.5 size=     256KiB time=00:00:02.26 bitrate= 925.4kbits/s speed=0.0161x elapsed=0:02:20.38    \nframe=  275 fps=2.0 q=50.8 size=     256KiB time=00:00:02.27 bitrate= 922.0kbits/s speed=0.0161x elapsed=0:02:20.88    \nframe=  277 fps=2.0 q=51.0 size=     256KiB time=00:00:02.29 bitrate= 915.3kbits/s speed=0.0162x elapsed=0:02:21.41    \nframe=  279 fps=2.0 q=50.8 size=     256KiB time=00:00:02.30 bitrate= 908.7kbits/s speed=0.0163x elapsed=0:02:21.92    \nframe=  281 fps=2.0 q=46.2 size=     256KiB time=00:00:02.32 bitrate= 902.2kbits/s speed=0.0163x elapsed=0:02:22.43    \nframe=  282 fps=2.0 q=51.0 size=     256KiB time=00:00:02.33 bitrate= 898.9kbits/s speed=0.0163x elapsed=0:02:22.95    \nframe=  284 fps=2.0 q=51.0 size=     256KiB time=00:00:02.35 bitrate= 892.6kbits/s speed=0.0164x elapsed=0:02:23.47    \nframe=  285 fps=2.0 q=51.0 size=     256KiB time=00:00:02.35 bitrate= 889.4kbits/s speed=0.0164x elapsed=0:02:23.99    \nframe=  287 fps=2.0 q=50.9 size=     256KiB time=00:00:02.37 bitrate= 883.2kbits/s speed=0.0164x elapsed=0:02:24.51    \nframe=  289 fps=2.0 q=51.0 size=     256KiB time=00:00:02.39 bitrate= 877.0kbits/s speed=0.0165x elapsed=0:02:25.03    \nframe=  290 fps=2.0 q=51.0 size=     256KiB time=00:00:02.40 bitrate= 874.0kbits/s speed=0.0165x elapsed=0:02:25.55    \nframe=  292 fps=2.0 q=51.0 size=     256KiB time=00:00:02.41 bitrate= 867.9kbits/s speed=0.0165x elapsed=0:02:26.05    \nframe=  294 fps=2.0 q=46.2 size=     256KiB time=00:00:02.43 bitrate= 862.0kbits/s speed=0.0166x elapsed=0:02:26.58    \nframe=  295 fps=2.0 q=51.0 size=     256KiB time=00:00:02.44 bitrate= 859.0kbits/s speed=0.0166x elapsed=0:02:27.09    \nframe=  298 fps=2.0 q=47.7 size=     256KiB time=00:00:02.46 bitrate= 850.3kbits/s speed=0.0167x elapsed=0:02:27.61    \nframe=  299 fps=2.0 q=51.0 size=     256KiB time=00:00:02.47 bitrate= 847.5kbits/s speed=0.0167x elapsed=0:02:28.13    \nframe=  301 fps=2.0 q=47.2 size=     256KiB time=00:00:02.49 bitrate= 841.8kbits/s speed=0.0168x elapsed=0:02:28.65    \nframe=  303 fps=2.0 q=47.5 size=     256KiB time=00:00:02.50 bitrate= 836.2kbits/s speed=0.0168x elapsed=0:02:29.16    \nframe=  304 fps=2.0 q=51.0 size=     256KiB time=00:00:02.51 bitrate= 833.4kbits/s speed=0.0168x elapsed=0:02:29.68    \nframe=  306 fps=2.0 q=46.2 size=     256KiB time=00:00:02.53 bitrate= 828.0kbits/s speed=0.0169x elapsed=0:02:30.21    \nframe=  307 fps=2.0 q=51.0 size=     256KiB time=00:00:02.54 bitrate= 825.2kbits/s speed=0.0169x elapsed=0:02:30.73    \nframe=  309 fps=2.0 q=51.0 size=     512KiB time=00:00:02.55 bitrate=1639.6kbits/s speed=0.0169x elapsed=0:02:31.24    \nframe=  311 fps=2.0 q=51.0 size=     512KiB time=00:00:02.57 bitrate=1629.0kbits/s speed=0.017x elapsed=0:02:31.77    \nframe=  313 fps=2.1 q=51.0 size=     512KiB time=00:00:02.59 bitrate=1618.5kbits/s speed=0.017x elapsed=0:02:32.29    \nframe=  314 fps=2.1 q=46.0 size=     512KiB time=00:00:02.60 bitrate=1613.3kbits/s speed=0.017x elapsed=0:02:32.81    \nframe=  316 fps=2.1 q=51.0 size=     512KiB time=00:00:02.61 bitrate=1603.1kbits/s speed=0.0171x elapsed=0:02:33.32    \nframe=  317 fps=2.1 q=51.0 size=     512KiB time=00:00:02.62 bitrate=1598.0kbits/s speed=0.0171x elapsed=0:02:33.85    \nframe=  319 fps=2.1 q=51.0 size=     512KiB time=00:00:02.64 bitrate=1587.9kbits/s speed=0.0171x elapsed=0:02:34.36    \nframe=  321 fps=2.1 q=51.0 size=     512KiB time=00:00:02.65 bitrate=1577.9kbits/s speed=0.0172x elapsed=0:02:34.86    \nframe=  322 fps=2.1 q=48.2 size=     512KiB time=00:00:02.66 bitrate=1573.0kbits/s speed=0.0172x elapsed=0:02:35.38    \nframe=  324 fps=2.1 q=51.0 size=     512KiB time=00:00:02.68 bitrate=1563.2kbits/s speed=0.0172x elapsed=0:02:35.91    \nframe=  326 fps=2.1 q=51.0 size=     512KiB time=00:00:02.70 bitrate=1553.6kbits/s speed=0.0173x elapsed=0:02:36.42    \nframe=  328 fps=2.1 q=51.0 size=     512KiB time=00:00:02.71 bitrate=1544.0kbits/s speed=0.0173x elapsed=0:02:36.93    \nframe=  329 fps=2.1 q=46.3 size=     512KiB time=00:00:02.72 bitrate=1539.3kbits/s speed=0.0173x elapsed=0:02:37.45    \nframe=  331 fps=2.1 q=51.0 size=     512KiB time=00:00:02.74 bitrate=1530.0kbits/s speed=0.0174x elapsed=0:02:37.97    \nframe=  333 fps=2.1 q=46.5 size=     512KiB time=00:00:02.75 bitrate=1520.7kbits/s speed=0.0174x elapsed=0:02:38.48    \nframe=  335 fps=2.1 q=51.0 size=     512KiB time=00:00:02.77 bitrate=1511.6kbits/s speed=0.0175x elapsed=0:02:39.00    \nframe=  336 fps=2.1 q=46.7 size=     512KiB time=00:00:02.78 bitrate=1507.1kbits/s speed=0.0174x elapsed=0:02:39.51    \nframe=  339 fps=2.1 q=51.0 size=     512KiB time=00:00:02.80 bitrate=1493.6kbits/s speed=0.0175x elapsed=0:02:40.03    \nframe=  340 fps=2.1 q=46.5 size=     512KiB time=00:00:02.81 bitrate=1489.2kbits/s speed=0.0175x elapsed=0:02:40.54    \nframe=  342 fps=2.1 q=51.0 size=     512KiB time=00:00:02.83 bitrate=1480.5kbits/s speed=0.0176x elapsed=0:02:41.06    \nframe=  344 fps=2.1 q=46.8 size=     512KiB time=00:00:02.85 bitrate=1471.8kbits/s speed=0.0176x elapsed=0:02:41.58    \nframe=  345 fps=2.1 q=51.0 size=     512KiB time=00:00:02.85 bitrate=1467.5kbits/s speed=0.0176x elapsed=0:02:42.08    \nframe=  348 fps=2.1 q=51.0 size=     512KiB time=00:00:02.88 bitrate=1454.8kbits/s speed=0.0177x elapsed=0:02:42.60    \nframe=  349 fps=2.1 q=48.2 size=     512KiB time=00:00:02.89 bitrate=1450.6kbits/s speed=0.0177x elapsed=0:02:43.12    \nframe=  350 fps=2.1 q=51.0 size=     512KiB time=00:00:02.90 bitrate=1446.4kbits/s speed=0.0177x elapsed=0:02:43.64    \nframe=  352 fps=2.1 q=51.0 size=     512KiB time=00:00:02.91 bitrate=1438.2kbits/s speed=0.0178x elapsed=0:02:44.15    \nframe=  353 fps=2.1 q=47.9 size=     512KiB time=00:00:02.92 bitrate=1434.1kbits/s speed=0.0178x elapsed=0:02:44.67    \nframe=  355 fps=2.1 q=51.0 size=     512KiB time=00:00:02.94 bitrate=1425.9kbits/s speed=0.0178x elapsed=0:02:45.18    \nframe=  357 fps=2.2 q=47.9 size=     512KiB time=00:00:02.95 bitrate=1417.9kbits/s speed=0.0179x elapsed=0:02:45.70    \nframe=  358 fps=2.2 q=51.0 size=     512KiB time=00:00:02.96 bitrate=1413.9kbits/s speed=0.0178x elapsed=0:02:46.22    \nframe=  361 fps=2.2 q=51.0 size=     512KiB time=00:00:02.99 bitrate=1402.1kbits/s speed=0.0179x elapsed=0:02:46.73    \nframe=  363 fps=2.2 q=51.0 size=     512KiB time=00:00:03.00 bitrate=1394.3kbits/s speed=0.018x elapsed=0:02:47.24    \nframe=  364 fps=2.2 q=48.0 size=     512KiB time=00:00:03.01 bitrate=1390.5kbits/s speed=0.018x elapsed=0:02:47.77    \nframe=  366 fps=2.2 q=51.0 size=     512KiB time=00:00:03.03 bitrate=1382.9kbits/s speed=0.018x elapsed=0:02:48.28    \nframe=  368 fps=2.2 q=48.8 size=     512KiB time=00:00:03.05 bitrate=1375.3kbits/s speed=0.0181x elapsed=0:02:48.79    \nframe=  370 fps=2.2 q=51.0 size=     512KiB time=00:00:03.06 bitrate=1367.8kbits/s speed=0.0181x elapsed=0:02:49.32    \nframe=  371 fps=2.2 q=51.0 size=     512KiB time=00:00:03.07 bitrate=1364.1kbits/s speed=0.0181x elapsed=0:02:49.82    \nframe=  372 fps=2.2 q=47.4 size=     512KiB time=00:00:03.08 bitrate=1360.4kbits/s speed=0.0181x elapsed=0:02:50.34    \nframe=  375 fps=2.2 q=51.0 size=     512KiB time=00:00:03.10 bitrate=1349.5kbits/s speed=0.0182x elapsed=0:02:50.86    \nframe=  376 fps=2.2 q=47.8 size=     512KiB time=00:00:03.11 bitrate=1345.9kbits/s speed=0.0182x elapsed=0:02:51.37    \nframe=  378 fps=2.2 q=51.0 size=     512KiB time=00:00:03.13 bitrate=1338.7kbits/s speed=0.0182x elapsed=0:02:51.88    \nframe=  380 fps=2.2 q=48.0 size=     512KiB time=00:00:03.15 bitrate=1331.6kbits/s speed=0.0183x elapsed=0:02:52.41    \nframe=  382 fps=2.2 q=51.0 size=     512KiB time=00:00:03.16 bitrate=1324.6kbits/s speed=0.0183x elapsed=0:02:52.91    \nframe=  383 fps=2.2 q=51.0 size=     512KiB time=00:00:03.17 bitrate=1321.2kbits/s speed=0.0183x elapsed=0:02:53.43    \nframe=  385 fps=2.2 q=51.0 size=     512KiB time=00:00:03.19 bitrate=1314.3kbits/s speed=0.0183x elapsed=0:02:53.95    \nframe=  387 fps=2.2 q=51.0 size=     512KiB time=00:00:03.20 bitrate=1307.4kbits/s speed=0.0184x elapsed=0:02:54.46    \nframe=  388 fps=2.2 q=49.7 size=     512KiB time=00:00:03.21 bitrate=1304.0kbits/s speed=0.0184x elapsed=0:02:54.99    \nframe=  390 fps=2.2 q=51.0 size=     512KiB time=00:00:03.23 bitrate=1297.3kbits/s speed=0.0184x elapsed=0:02:55.50    \nframe=  391 fps=2.2 q=51.0 size=     512KiB time=00:00:03.24 bitrate=1294.0kbits/s speed=0.0184x elapsed=0:02:56.02    \nframe=  393 fps=2.2 q=51.0 size=     512KiB time=00:00:03.25 bitrate=1287.4kbits/s speed=0.0185x elapsed=0:02:56.53    \nframe=  395 fps=2.2 q=51.0 size=     512KiB time=00:00:03.27 bitrate=1280.8kbits/s speed=0.0185x elapsed=0:02:57.04    \nframe=  397 fps=2.2 q=51.0 size=     512KiB time=00:00:03.29 bitrate=1274.3kbits/s speed=0.0185x elapsed=0:02:57.56    \nframe=  399 fps=2.2 q=49.4 size=     512KiB time=00:00:03.30 bitrate=1267.9kbits/s speed=0.0186x elapsed=0:02:58.07    \nframe=  400 fps=2.2 q=51.0 size=     512KiB time=00:00:03.31 bitrate=1264.7kbits/s speed=0.0186x elapsed=0:02:58.59    \nframe=  402 fps=2.2 q=50.0 size=     512KiB time=00:00:03.33 bitrate=1258.4kbits/s speed=0.0186x elapsed=0:02:59.10    \nframe=  404 fps=2.2 q=49.8 size=     512KiB time=00:00:03.35 bitrate=1252.1kbits/s speed=0.0186x elapsed=0:02:59.63    \nframe=  406 fps=2.3 q=51.0 size=     512KiB time=00:00:03.36 bitrate=1245.9kbits/s speed=0.0187x elapsed=0:03:00.14    \nframe=  407 fps=2.3 q=49.5 size=     512KiB time=00:00:03.37 bitrate=1242.9kbits/s speed=0.0187x elapsed=0:03:00.65    \nframe=  410 fps=2.3 q=51.0 size=     512KiB time=00:00:03.40 bitrate=1233.7kbits/s speed=0.0188x elapsed=0:03:01.16    \nframe=  411 fps=2.3 q=50.1 size=     512KiB time=00:00:03.40 bitrate=1230.7kbits/s speed=0.0188x elapsed=0:03:01.68    \nframe=  413 fps=2.3 q=51.0 size=     512KiB time=00:00:03.42 bitrate=1224.7kbits/s speed=0.0188x elapsed=0:03:02.20    \nframe=  414 fps=2.3 q=51.0 size=     512KiB time=00:00:03.43 bitrate=1221.7kbits/s speed=0.0188x elapsed=0:03:02.71    \nframe=  416 fps=2.3 q=51.0 size=     512KiB time=00:00:03.45 bitrate=1215.8kbits/s speed=0.0188x elapsed=0:03:03.23    \nframe=  419 fps=2.3 q=51.0 size=     512KiB time=00:00:03.47 bitrate=1207.1kbits/s speed=0.0189x elapsed=0:03:03.75    \nframe=  420 fps=2.3 q=50.8 size=     512KiB time=00:00:03.48 bitrate=1204.2kbits/s speed=0.0189x elapsed=0:03:04.26    \nframe=  423 fps=2.3 q=50.9 size=     512KiB time=00:00:03.50 bitrate=1195.6kbits/s speed=0.019x elapsed=0:03:04.78    \nframe=  425 fps=2.3 q=51.0 size=     512KiB time=00:00:03.52 bitrate=1190.0kbits/s speed=0.019x elapsed=0:03:05.29    \nframe=  427 fps=2.3 q=51.0 size=     512KiB time=00:00:03.54 bitrate=1184.4kbits/s speed=0.0191x elapsed=0:03:05.80    \nframe=  429 fps=2.3 q=51.0 size=     512KiB time=00:00:03.55 bitrate=1178.8kbits/s speed=0.0191x elapsed=0:03:06.32    \nframe=  431 fps=2.3 q=51.0 size=     512KiB time=00:00:03.57 bitrate=1173.3kbits/s speed=0.0191x elapsed=0:03:06.83    \nframe=  434 fps=2.3 q=51.0 size=     512KiB time=00:00:03.60 bitrate=1165.2kbits/s speed=0.0192x elapsed=0:03:07.36    \nframe=  436 fps=2.3 q=51.0 size=     512KiB time=00:00:03.61 bitrate=1159.8kbits/s speed=0.0193x elapsed=0:03:07.87    \nframe=  438 fps=2.3 q=51.0 size=     512KiB time=00:00:03.63 bitrate=1154.5kbits/s speed=0.0193x elapsed=0:03:08.39    \nframe=  441 fps=2.3 q=51.0 size=     512KiB time=00:00:03.65 bitrate=1146.6kbits/s speed=0.0194x elapsed=0:03:08.90    \nframe=  442 fps=2.3 q=51.0 size=     512KiB time=00:00:03.66 bitrate=1144.0kbits/s speed=0.0194x elapsed=0:03:09.42    \nframe=  445 fps=2.3 q=51.0 size=     512KiB time=00:00:03.69 bitrate=1136.2kbits/s speed=0.0194x elapsed=0:03:09.93    \nframe=  448 fps=2.4 q=51.0 size=     512KiB time=00:00:03.71 bitrate=1128.6kbits/s speed=0.0195x elapsed=0:03:10.44    \nframe=  450 fps=2.4 q=51.0 size=     512KiB time=00:00:03.73 bitrate=1123.6kbits/s speed=0.0195x elapsed=0:03:10.96    \nframe=  451 fps=2.4 q=51.0 size=     512KiB time=00:00:03.74 bitrate=1121.1kbits/s speed=0.0195x elapsed=0:03:11.47    \nframe=  454 fps=2.4 q=51.0 size=     512KiB time=00:00:03.76 bitrate=1113.6kbits/s speed=0.0196x elapsed=0:03:12.00    \nframe=  456 fps=2.4 q=51.0 size=     512KiB time=00:00:03.78 bitrate=1108.7kbits/s speed=0.0197x elapsed=0:03:12.52    \nframe=  459 fps=2.4 q=51.0 size=     512KiB time=00:00:03.80 bitrate=1101.4kbits/s speed=0.0197x elapsed=0:03:13.03    \nframe=  460 fps=2.4 q=51.0 size=     512KiB time=00:00:03.81 bitrate=1099.0kbits/s speed=0.0197x elapsed=0:03:13.54    \nframe=  462 fps=2.4 q=51.0 size=     512KiB time=00:00:03.83 bitrate=1094.3kbits/s speed=0.0198x elapsed=0:03:14.05    \nframe=  465 fps=2.4 q=51.0 size=     512KiB time=00:00:03.85 bitrate=1087.2kbits/s speed=0.0198x elapsed=0:03:14.58    \nframe=  468 fps=2.4 q=51.0 size=     512KiB time=00:00:03.88 bitrate=1080.2kbits/s speed=0.0199x elapsed=0:03:15.09    \nframe=  470 fps=2.4 q=51.0 size=     768KiB time=00:00:03.90 bitrate=1613.3kbits/s speed=0.0199x elapsed=0:03:15.61    \nframe=  472 fps=2.4 q=51.0 size=     768KiB time=00:00:03.91 bitrate=1606.4kbits/s speed=0.02x elapsed=0:03:16.12    \nframe=  473 fps=2.4 q=51.0 size=     768KiB time=00:00:03.92 bitrate=1603.0kbits/s speed=0.02x elapsed=0:03:16.64    \nframe=  474 fps=2.4 q=51.0 size=     768KiB time=00:00:03.93 bitrate=1599.6kbits/s speed=0.0199x elapsed=0:03:17.18    \nframe=  476 fps=2.4 q=51.0 size=     768KiB time=00:00:03.95 bitrate=1592.9kbits/s speed=0.02x elapsed=0:03:17.70    \nframe=  477 fps=2.4 q=51.0 size=     768KiB time=00:00:03.95 bitrate=1589.5kbits/s speed=0.02x elapsed=0:03:18.23    \nframe=  478 fps=2.4 q=51.0 size=     768KiB time=00:00:03.96 bitrate=1586.2kbits/s speed=0.02x elapsed=0:03:18.76    \nframe=  479 fps=2.4 q=51.0 size=     768KiB time=00:00:03.97 bitrate=1582.8kbits/s speed=0.0199x elapsed=0:03:19.27    \nframe=  480 fps=2.4 q=51.0 size=     768KiB time=00:00:03.98 bitrate=1579.5kbits/s speed=0.0199x elapsed=0:03:19.79    \nframe=  483 fps=2.4 q=51.0 size=     768KiB time=00:00:04.00 bitrate=1569.7kbits/s speed=0.02x elapsed=0:03:20.32    \nframe=  484 fps=2.4 q=51.0 size=     768KiB time=00:00:04.01 bitrate=1566.4kbits/s speed=0.02x elapsed=0:03:20.85    \nframe=  485 fps=2.4 q=51.0 size=     768KiB time=00:00:04.02 bitrate=1563.2kbits/s speed=0.02x elapsed=0:03:21.36    \nframe=  486 fps=2.4 q=51.0 size=     768KiB time=00:00:04.03 bitrate=1560.0kbits/s speed=0.02x elapsed=0:03:21.88    \nframe=  488 fps=2.4 q=51.0 size=     768KiB time=00:00:04.05 bitrate=1553.5kbits/s speed=0.02x elapsed=0:03:22.40    \nframe=  489 fps=2.4 q=51.0 size=     768KiB time=00:00:04.05 bitrate=1550.3kbits/s speed=0.02x elapsed=0:03:22.92    \nframe=  491 fps=2.4 q=51.0 size=     768KiB time=00:00:04.07 bitrate=1544.0kbits/s speed=0.02x elapsed=0:03:23.45    \nframe=  492 fps=2.4 q=51.0 size=     768KiB time=00:00:04.08 bitrate=1540.9kbits/s speed=0.02x elapsed=0:03:23.97    \nframe=  493 fps=2.4 q=51.0 size=     768KiB time=00:00:04.09 bitrate=1537.7kbits/s speed=0.02x elapsed=0:03:24.50    \nframe=  494 fps=2.4 q=51.0 size=     768KiB time=00:00:04.10 bitrate=1534.6kbits/s speed=0.02x elapsed=0:03:25.01    \nframe=  495 fps=2.4 q=51.0 size=     768KiB time=00:00:04.10 bitrate=1531.5kbits/s speed=0.02x elapsed=0:03:25.53    \nframe=  497 fps=2.4 q=51.0 size=     768KiB time=00:00:04.12 bitrate=1525.3kbits/s speed=0.02x elapsed=0:03:26.05    \nframe=  497 fps=2.4 q=51.0 size=     768KiB time=00:00:04.12 bitrate=1525.3kbits/s speed=0.02x elapsed=0:03:26.57    \nframe=  498 fps=2.4 q=51.0 size=     768KiB time=00:00:04.13 bitrate=1522.2kbits/s speed=0.02x elapsed=0:03:27.09    \nframe=  498 fps=2.4 q=51.0 size=     768KiB time=00:00:04.13 bitrate=1522.2kbits/s speed=0.0199x elapsed=0:03:27.61    \nframe=  500 fps=2.4 q=51.0 size=     768KiB time=00:00:04.15 bitrate=1516.1kbits/s speed=0.0199x elapsed=0:03:28.13    \nframe=  501 fps=2.4 q=51.0 size=     768KiB time=00:00:04.15 bitrate=1513.1kbits/s speed=0.0199x elapsed=0:03:28.66    \nframe=  502 fps=2.4 q=51.0 size=     768KiB time=00:00:04.16 bitrate=1510.0kbits/s speed=0.0199x elapsed=0:03:29.18    \nframe=  502 fps=2.4 q=51.0 size=     768KiB time=00:00:04.16 bitrate=1510.0kbits/s speed=0.0199x elapsed=0:03:29.70    \nframe=  503 fps=2.4 q=51.0 size=     768KiB time=00:00:04.17 bitrate=1507.0kbits/s speed=0.0199x elapsed=0:03:30.21    \nframe=  505 fps=2.4 q=51.0 size=     768KiB time=00:00:04.19 bitrate=1501.0kbits/s speed=0.0199x elapsed=0:03:30.73    \nframe=  506 fps=2.4 q=51.0 size=     768KiB time=00:00:04.20 bitrate=1498.0kbits/s speed=0.0199x elapsed=0:03:31.26    \nframe=  507 fps=2.4 q=51.0 size=     768KiB time=00:00:04.20 bitrate=1495.1kbits/s speed=0.0199x elapsed=0:03:31.78    \nframe=  509 fps=2.4 q=51.0 size=     768KiB time=00:00:04.22 bitrate=1489.2kbits/s speed=0.0199x elapsed=0:03:32.31    \nframe=  510 fps=2.4 q=51.0 size=     768KiB time=00:00:04.23 bitrate=1486.3kbits/s speed=0.0199x elapsed=0:03:32.85    \nframe=  511 fps=2.4 q=51.0 size=     768KiB time=00:00:04.24 bitrate=1483.3kbits/s speed=0.0199x elapsed=0:03:33.37    \nframe=  513 fps=2.4 q=51.0 size=     768KiB time=00:00:04.25 bitrate=1477.5kbits/s speed=0.0199x elapsed=0:03:33.89    \nframe=  514 fps=2.4 q=51.0 size=     768KiB time=00:00:04.26 bitrate=1474.6kbits/s speed=0.0199x elapsed=0:03:34.41    \nframe=  516 fps=2.4 q=51.0 size=     768KiB time=00:00:04.28 bitrate=1468.9kbits/s speed=0.0199x elapsed=0:03:34.94    \nframe=  518 fps=2.4 q=51.0 size=     768KiB time=00:00:04.30 bitrate=1463.2kbits/s speed=0.02x elapsed=0:03:35.46    \nframe=  520 fps=2.4 q=51.0 size=     768KiB time=00:00:04.31 bitrate=1457.6kbits/s speed=0.02x elapsed=0:03:35.97    \nframe=  520 fps=2.4 q=51.0 size=     768KiB time=00:00:04.31 bitrate=1457.6kbits/s speed=0.0199x elapsed=0:03:36.50    \nframe=  521 fps=2.4 q=51.0 size=     768KiB time=00:00:04.32 bitrate=1454.8kbits/s speed=0.0199x elapsed=0:03:37.01    \nframe=  523 fps=2.4 q=51.0 size=     768KiB time=00:00:04.34 bitrate=1449.2kbits/s speed=0.02x elapsed=0:03:37.53    \nframe=  525 fps=2.4 q=51.0 size=     768KiB time=00:00:04.35 bitrate=1443.6kbits/s speed=0.02x elapsed=0:03:38.04    \nframe=  526 fps=2.4 q=51.0 size=     768KiB time=00:00:04.36 bitrate=1440.9kbits/s speed=0.02x elapsed=0:03:38.57    \nframe=  527 fps=2.4 q=51.0 size=     768KiB time=00:00:04.37 bitrate=1438.1kbits/s speed=0.02x elapsed=0:03:39.09    \nframe=  528 fps=2.4 q=51.0 size=     768KiB time=00:00:04.38 bitrate=1435.4kbits/s speed=0.02x elapsed=0:03:39.60    \nframe=  529 fps=2.4 q=51.0 size=     768KiB time=00:00:04.39 bitrate=1432.7kbits/s speed=0.02x elapsed=0:03:40.12    \nframe=  530 fps=2.4 q=51.0 size=     768KiB time=00:00:04.40 bitrate=1430.0kbits/s speed=0.0199x elapsed=0:03:40.63    \nframe=  532 fps=2.4 q=51.0 size=     768KiB time=00:00:04.41 bitrate=1424.6kbits/s speed=0.02x elapsed=0:03:41.16    \nframe=  532 fps=2.4 q=51.0 size=     768KiB time=00:00:04.41 bitrate=1424.6kbits/s speed=0.0199x elapsed=0:03:41.69    \nframe=  534 fps=2.4 q=51.0 size=     768KiB time=00:00:04.43 bitrate=1419.2kbits/s speed=0.02x elapsed=0:03:42.19    \nframe=  536 fps=2.4 q=51.0 size=     768KiB time=00:00:04.45 bitrate=1413.9kbits/s speed=0.02x elapsed=0:03:42.71    \nframe=  537 fps=2.4 q=51.0 size=     768KiB time=00:00:04.45 bitrate=1411.2kbits/s speed=0.02x elapsed=0:03:43.23    \nframe=  538 fps=2.4 q=51.0 size=     768KiB time=00:00:04.46 bitrate=1408.6kbits/s speed=0.02x elapsed=0:03:43.74    \nframe=  538 fps=2.4 q=51.0 size=     768KiB time=00:00:04.46 bitrate=1408.6kbits/s speed=0.0199x elapsed=0:03:44.26    \nframe=  539 fps=2.4 q=51.0 size=     768KiB time=00:00:04.47 bitrate=1406.0kbits/s speed=0.0199x elapsed=0:03:44.78    \nframe=  541 fps=2.4 q=51.0 size=     768KiB time=00:00:04.49 bitrate=1400.8kbits/s speed=0.0199x elapsed=0:03:45.29    \nframe=  542 fps=2.4 q=51.0 size=     768KiB time=00:00:04.50 bitrate=1398.2kbits/s speed=0.0199x elapsed=0:03:45.81    \nframe=  542 fps=2.4 q=51.0 size=     768KiB time=00:00:04.50 bitrate=1398.2kbits/s speed=0.0199x elapsed=0:03:46.33    \nframe=  544 fps=2.4 q=51.0 size=     768KiB time=00:00:04.51 bitrate=1393.0kbits/s speed=0.0199x elapsed=0:03:46.84    \nframe=  546 fps=2.4 q=51.0 size=     768KiB time=00:00:04.52 bitrate=1390.5kbits/s speed=0.0199x elapsed=0:03:47.36    \nframe=  547 fps=2.4 q=51.0 size=     768KiB time=00:00:04.54 bitrate=1385.4kbits/s speed=0.0199x elapsed=0:03:47.89    \nframe=  548 fps=2.4 q=51.0 size=     768KiB time=00:00:04.55 bitrate=1382.8kbits/s speed=0.0199x elapsed=0:03:48.40    \nframe=  549 fps=2.4 q=51.0 size=     768KiB time=00:00:04.55 bitrate=1380.3kbits/s speed=0.0199x elapsed=0:03:48.92    \nframe=  550 fps=2.4 q=51.0 size=     768KiB time=00:00:04.56 bitrate=1377.8kbits/s speed=0.0199x elapsed=0:03:49.45    \nframe=  551 fps=2.4 q=51.0 size=     768KiB time=00:00:04.57 bitrate=1375.3kbits/s speed=0.0199x elapsed=0:03:49.97    \nframe=  552 fps=2.4 q=51.0 size=     768KiB time=00:00:04.58 bitrate=1372.8kbits/s speed=0.0199x elapsed=0:03:50.48    \nframe=  553 fps=2.4 q=51.0 size=     768KiB time=00:00:04.59 bitrate=1370.3kbits/s speed=0.0199x elapsed=0:03:51.01    \nframe=  554 fps=2.4 q=51.0 size=     768KiB time=00:00:04.60 bitrate=1367.8kbits/s speed=0.0199x elapsed=0:03:51.53    \nframe=  556 fps=2.4 q=51.0 size=     768KiB time=00:00:04.61 bitrate=1362.8kbits/s speed=0.0199x elapsed=0:03:52.04    \nframe=  558 fps=2.4 q=51.0 size=     768KiB time=00:00:04.63 bitrate=1357.9kbits/s speed=0.0199x elapsed=0:03:52.57    \nframe=  559 fps=2.4 q=51.0 size=     768KiB time=00:00:04.64 bitrate=1355.5kbits/s speed=0.0199x elapsed=0:03:53.09    \nframe=  560 fps=2.4 q=51.0 size=     768KiB time=00:00:04.65 bitrate=1353.1kbits/s speed=0.0199x elapsed=0:03:53.60    \nframe=  562 fps=2.4 q=51.0 size=     768KiB time=00:00:04.66 bitrate=1348.2kbits/s speed=0.0199x elapsed=0:03:54.12    \nframe=  563 fps=2.4 q=51.0 size=     768KiB time=00:00:04.67 bitrate=1345.8kbits/s speed=0.0199x elapsed=0:03:54.63    \nframe=  563 fps=2.4 q=51.0 size=     768KiB time=00:00:04.67 bitrate=1345.8kbits/s speed=0.0199x elapsed=0:03:55.15    \nframe=  564 fps=2.4 q=51.0 size=     768KiB time=00:00:04.68 bitrate=1343.4kbits/s speed=0.0199x elapsed=0:03:55.68    \nframe=  565 fps=2.4 q=51.0 size=     768KiB time=00:00:04.69 bitrate=1341.1kbits/s speed=0.0199x elapsed=0:03:56.20    \nframe=  566 fps=2.4 q=51.0 size=     768KiB time=00:00:04.70 bitrate=1338.7kbits/s speed=0.0199x elapsed=0:03:56.72    \nframe=  568 fps=2.4 q=51.0 size=     768KiB time=00:00:04.71 bitrate=1334.0kbits/s speed=0.0199x elapsed=0:03:57.25    \nframe=  569 fps=2.4 q=51.0 size=     768KiB time=00:00:04.72 bitrate=1331.6kbits/s speed=0.0199x elapsed=0:03:57.76    \nframe=  571 fps=2.4 q=51.0 size=     768KiB time=00:00:04.74 bitrate=1326.9kbits/s speed=0.0199x elapsed=0:03:58.28    \nframe=  572 fps=2.4 q=50.8 size=     768KiB time=00:00:04.75 bitrate=1324.6kbits/s speed=0.0199x elapsed=0:03:58.79    \nframe=  573 fps=2.4 q=51.0 size=     768KiB time=00:00:04.75 bitrate=1322.3kbits/s speed=0.0199x elapsed=0:03:59.30    \nframe=  573 fps=2.4 q=51.0 size=     768KiB time=00:00:04.75 bitrate=1322.3kbits/s speed=0.0198x elapsed=0:03:59.82    \nframe=  576 fps=2.4 q=51.0 size=     768KiB time=00:00:04.78 bitrate=1315.4kbits/s speed=0.0199x elapsed=0:04:00.36    \nframe=  577 fps=2.4 q=50.8 size=     768KiB time=00:00:04.79 bitrate=1313.1kbits/s speed=0.0199x elapsed=0:04:00.89    \nframe=  578 fps=2.4 q=51.0 size=     768KiB time=00:00:04.80 bitrate=1310.8kbits/s speed=0.0199x elapsed=0:04:01.40    \nframe=  580 fps=2.4 q=51.0 size=     768KiB time=00:00:04.81 bitrate=1306.3kbits/s speed=0.0199x elapsed=0:04:01.92    \nframe=  581 fps=2.4 q=51.0 size=     768KiB time=00:00:04.82 bitrate=1304.0kbits/s speed=0.0199x elapsed=0:04:02.44    \nframe=  582 fps=2.4 q=51.0 size=     768KiB time=00:00:04.83 bitrate=1301.8kbits/s speed=0.0199x elapsed=0:04:02.96    \nframe=  583 fps=2.4 q=51.0 size=     768KiB time=00:00:04.84 bitrate=1299.5kbits/s speed=0.0199x elapsed=0:04:03.48    \nframe=  584 fps=2.4 q=51.0 size=     768KiB time=00:00:04.85 bitrate=1297.3kbits/s speed=0.0199x elapsed=0:04:04.00    \nframe=  585 fps=2.4 q=51.0 size=     768KiB time=00:00:04.85 bitrate=1295.1kbits/s speed=0.0199x elapsed=0:04:04.51    \nframe=  586 fps=2.4 q=51.0 size=     768KiB time=00:00:04.86 bitrate=1292.8kbits/s speed=0.0199x elapsed=0:04:05.04    \nframe=  587 fps=2.4 q=51.0 size=     768KiB time=00:00:04.87 bitrate=1290.6kbits/s speed=0.0199x elapsed=0:04:05.58    \nframe=  589 fps=2.4 q=51.0 size=     768KiB time=00:00:04.89 bitrate=1286.2kbits/s speed=0.0199x elapsed=0:04:06.09    \nframe=  591 fps=2.4 q=51.0 size=     768KiB time=00:00:04.90 bitrate=1281.9kbits/s speed=0.0199x elapsed=0:04:06.61    \nframe=  592 fps=2.4 q=51.0 size=     768KiB time=00:00:04.91 bitrate=1279.7kbits/s speed=0.0199x elapsed=0:04:07.14    \nframe=  594 fps=2.4 q=51.0 size=     768KiB time=00:00:04.93 bitrate=1275.4kbits/s speed=0.0199x elapsed=0:04:07.65    \nframe=  594 fps=2.4 q=51.0 size=     768KiB time=00:00:04.93 bitrate=1275.4kbits/s speed=0.0199x elapsed=0:04:08.16    \nframe=  596 fps=2.4 q=51.0 size=     768KiB time=00:00:04.95 bitrate=1271.1kbits/s speed=0.0199x elapsed=0:04:08.68    \nframe=  599 fps=2.4 q=51.0 size=     768KiB time=00:00:04.97 bitrate=1264.7kbits/s speed=0.02x elapsed=0:04:09.20    \n[mp4 @ 000001d3ae629bc0] Starting second pass: moving the moov atom to the beginning of the file\n[out#0/mp4 @ 000001d3ae629ac0] video:941KiB audio:0KiB subtitle:0KiB other streams:0KiB global headers:2KiB muxing overhead: 1.139067%\nframe=  600 fps=2.4 q=51.0 Lsize=     951KiB time=00:00:04.98 bitrate=1563.8kbits/s speed=0.02x elapsed=0:04:09.48    \nx265 [info]: frame I:      3, Avg QP:48.52  kb/s: 7475.20 \nx265 [info]: frame P:    154, Avg QP:47.68  kb/s: 3310.74 \nx265 [info]: frame B:    443, Avg QP:50.48  kb/s: 880.47  \nx265 [info]: Weighted P-Frames: Y:0.0% UV:0.0%\n\nencoded 600 frames in 249.29s (2.41 fps), 1537.21 kb/s, Avg QP:49.75\n",
  "seconds": 249.67721843719482,
  "probe_out": {}
}